<svg xmlns="http://www.w3.org/2000/svg" xmlns:xlink="http://www.w3.org/1999/xlink" width="25.107" height="18.632" viewBox="0 0 25.107 18.632">
  <defs>
    <style>
      .cls-1 {
        clip-path: url(#clip-path);
      }

      .cls-2 {
        fill: #c4c5c9;
      }
    </style>
    <clipPath id="clip-path"/>
  </defs>
  <g id="classes_icon" transform="translate(11 0)">
    <g id="Groupe_74" data-name="Groupe 74" class="cls-1" transform="translate(-11 0)">
      <g id="Groupe_256" data-name="Groupe 256">
        <path id="Tracé_394" data-name="Tracé 394" class="cls-2" d="M25.1,16.187h0a.183.183,0,0,1,0-.1q0-.366,0-.732a.842.842,0,0,0-.651-.26c-.329.029-.332.006-.332-.32V.782c0-.611-.17-.782-.781-.782q-10.8,0-21.59,0C1.191,0,.975.174.976.762q.012,6.983,0,13.966c0,.42.046.375-.361.368a.645.645,0,0,0-.619.3v2.941a.655.655,0,0,0,.619.3q11.931-.006,23.863,0a.618.618,0,0,0,.615-.3q0-.509,0-1.017,0-.534.007-1.069a.417.417,0,0,0-.006-.058M2.01,2.207c0-.294.01-.589,0-.882-.009-.19.049-.252.245-.25,1.1.009,2.19,0,3.285,0H22.769c.324,0,.325,0,.325.334V14.77c0,.328,0,.329-.33.329H11.316c-.277,0-.275,0-.141-.238.115-.2.222-.415.338-.619a.267.267,0,0,0,0-.295c-.14-.237-.28-.475-.407-.719a.227.227,0,0,0-.229-.14q-2.6,0-5.2,0c-.158,0-.191.066-.189.205.005.507-.012,1.013.008,1.519.01.246-.074.3-.3.293q-1.446-.019-2.892,0c-.24,0-.3-.068-.3-.3q.011-6.3.005-12.6M23.864,17.6c-.105-.009-.212,0-.318,0H1.365c-.335,0-.335,0-.335-.324s.009-.621,0-.931c-.007-.176.06-.238.227-.217a.923.923,0,0,0,.122,0H23.727c.347,0,.347,0,.347.336,0,.31-.008.621,0,.931.006.165-.058.219-.214.2" transform="translate(0 0)"/>
        <path id="Tracé_395" data-name="Tracé 395" class="cls-2" d="M116.844,72.536a.745.745,0,0,1-.275.486q-2.681,1.9-5.36,3.807c-.494.352-.981.714-1.472,1.07-.371.268-.625.213-1.054-.154-.763-.652-1.544-1.284-2.311-1.931-.1-.082-.144-.072-.241,0-1.156.872-2.317,1.736-3.476,2.6a.532.532,0,1,1-.65-.832c.5-.4,1.014-.778,1.526-1.162.757-.568,1.518-1.129,2.273-1.7a.7.7,0,0,1,1,.049c.539.465,1.1.909,1.645,1.364.237.2.477.39.7.6a.213.213,0,0,0,.33.023c.925-.667,1.858-1.322,2.786-1.984q1.836-1.311,3.669-2.628a.594.594,0,0,1,.637-.083.517.517,0,0,1,.275.469" transform="translate(-96.74 -68.469)"/>
      </g>
    </g>
  </g>
</svg>
