<svg xmlns="http://www.w3.org/2000/svg" xmlns:xlink="http://www.w3.org/1999/xlink" width="29.714" height="22.051" viewBox="0 0 29.714 22.051">
  <defs>
    <style>
      .cls-1 {
        clip-path: url(#clip-path);
      }

      .cls-2 {
        fill: #c4c5c9;
      }
    </style>
    <clipPath id="clip-path"/>
  </defs>
  <g id="Groupe_74" data-name="Groupe 74" class="cls-1" transform="translate(0 0)">
    <g id="Groupe_256" data-name="Groupe 256">
      <path id="Tracé_394" data-name="Tracé 394" class="cls-2" d="M29.706,19.157h0a.217.217,0,0,1,0-.12q0-.433.006-.867a1,1,0,0,0-.77-.308c-.39.035-.393.008-.393-.379V.925c0-.724-.2-.925-.925-.925Q14.849,0,2.074,0c-.664,0-.92.2-.918.9q.014,8.264,0,16.528c0,.5.055.444-.427.435A.763.763,0,0,0,0,18.218V21.7a.776.776,0,0,0,.732.352q14.12-.007,28.242,0A.732.732,0,0,0,29.7,21.7q0-.6,0-1.2,0-.633.008-1.266a.493.493,0,0,0-.008-.069M2.379,2.612c0-.348.012-.7,0-1.044-.011-.225.058-.3.29-.3,1.3.01,2.592.005,3.887,0H26.947c.384,0,.384,0,.384.4V17.48c0,.389,0,.389-.391.389H13.393c-.328,0-.325,0-.167-.282.137-.243.262-.491.4-.733a.316.316,0,0,0,0-.349c-.166-.28-.332-.562-.482-.85a.268.268,0,0,0-.271-.166q-3.075,0-6.15,0c-.187,0-.226.079-.224.243.006.6-.014,1.2.009,1.8.012.291-.088.351-.36.347q-1.711-.023-3.423,0c-.284,0-.35-.08-.35-.356q.013-7.455.006-14.909M28.242,20.83c-.124-.01-.251,0-.377,0H1.615c-.4,0-.4,0-.4-.383,0-.367.01-.735,0-1.1-.008-.209.071-.282.268-.257a1.093,1.093,0,0,0,.145,0H28.081c.411,0,.411,0,.411.4,0,.367-.009.735,0,1.1.007.195-.068.259-.253.243" transform="translate(0 0)"/>
      <path id="Tracé_395" data-name="Tracé 395" class="cls-2" d="M119.615,72.633a.882.882,0,0,1-.325.575q-3.173,2.25-6.343,4.506c-.585.416-1.161.845-1.742,1.266-.439.318-.739.252-1.248-.183-.9-.772-1.827-1.519-2.736-2.285-.115-.1-.17-.085-.285,0-1.368,1.031-2.742,2.054-4.114,3.08a.629.629,0,1,1-.769-.984c.594-.469,1.2-.921,1.806-1.375.9-.672,1.8-1.336,2.69-2.011a.827.827,0,0,1,1.183.058c.638.55,1.3,1.075,1.947,1.614.28.233.565.462.829.712a.252.252,0,0,0,.39.027c1.094-.789,2.2-1.564,3.3-2.348q2.173-1.552,4.342-3.111a.7.7,0,0,1,.754-.1.611.611,0,0,1,.326.555" transform="translate(-95.822 -67.82)"/>
    </g>
  </g>
</svg>
