<svg xmlns="http://www.w3.org/2000/svg" xmlns:xlink="http://www.w3.org/1999/xlink" width="14.548" height="25.037" viewBox="0 0 14.548 25.037">
  <defs>
    <clipPath id="clip-path">
      <rect id="Rectangle_1553" data-name="Rectangle 1553" width="14.548" height="25.037" fill="#c4c5c9"/>
    </clipPath>
  </defs>
  <g id="parents" transform="translate(0 0)">
    <g id="Groupe_76" data-name="Groupe 76" transform="translate(0 0)" clip-path="url(#clip-path)">
      <path id="Tracé_396" data-name="Tracé 396" d="M25.2,38.57c-.4.92-.9,1.281-1.652,1.223a1.436,1.436,0,0,1-1.325-1.437c0-1.371.009-2.742,0-4.113a.392.392,0,0,1,.225-.4,1.611,1.611,0,0,0,.871-1.388,37.65,37.65,0,0,0-.01-4.246,2.862,2.862,0,0,0-1.841-2.642,3.2,3.2,0,0,0,.631-1.7,2.9,2.9,0,0,0-.7-2.09c-.148-.172-.11-.251.044-.367a2.755,2.755,0,0,1,1.345-.56,16.813,16.813,0,0,1,4.541.014A2.649,2.649,0,0,1,29.7,23.408a8.675,8.675,0,0,1,.065,1.093q-.006,2.485-.008,4.97a1.353,1.353,0,0,1-1.246,1.489c-.273.042-.332.143-.33.409.013,2.308.01,4.616,0,6.924a1.5,1.5,0,0,1-2.443,1.166,1.547,1.547,0,0,1-.537-.889" transform="translate(-15.213 -14.772)" fill="#c4c5c9"/>
      <path id="Tracé_397" data-name="Tracé 397" d="M5.277,52.845a1.261,1.261,0,0,1-.675.764,1.11,1.11,0,0,1-1.528-1.114c0-1.645-.008-3.291,0-4.936,0-.294-.028-.462-.378-.518a.858.858,0,0,1-.731-.9c-.012-1.028,0-2.057-.011-3.085,0-.17.036-.2.215-.167a1.994,1.994,0,0,0,2.478-2.49c-.021-.1-.095-.23.115-.227.674.012,1.354-.037,2.02.039a1.922,1.922,0,0,1,1.8,2.057c.052,1.312.024,2.628.011,3.941a.842.842,0,0,1-.785.854c-.3.044-.32.174-.32.421.006,1.668,0,3.337,0,5a1.133,1.133,0,0,1-.595,1.079,1.1,1.1,0,0,1-1.461-.419c-.051-.087-.092-.181-.153-.3" transform="translate(-1.397 -28.664)" fill="#c4c5c9"/>
      <path id="Tracé_398" data-name="Tracé 398" d="M27.8,5.286a2.643,2.643,0,1,1,2.643-2.654A2.627,2.627,0,0,1,27.8,5.286" transform="translate(-17.956 0)" fill="#c4c5c9"/>
      <path id="Tracé_399" data-name="Tracé 399" d="M8.376,28.052A2.073,2.073,0,1,1,10.464,26a2.084,2.084,0,0,1-2.087,2.049" transform="translate(-4.494 -17.061)" fill="#c4c5c9"/>
      <path id="Tracé_400" data-name="Tracé 400" d="M2.631,39.4a1.271,1.271,0,0,1-1.174,1.342A1.284,1.284,0,0,1,.026,39.695a.568.568,0,0,1,.15-.572,4.612,4.612,0,0,1,1.232-.969.576.576,0,0,1,.852.228A1.8,1.8,0,0,1,2.631,39.4" transform="translate(0 -27.157)" fill="#c4c5c9"/>
    </g>
  </g>
</svg>
