<svg xmlns="http://www.w3.org/2000/svg" xmlns:xlink="http://www.w3.org/1999/xlink" width="32.412" height="18.168" viewBox="0 0 32.412 18.168">
  <defs>
    <clipPath id="clip-path">
      <rect id="Rectangle_1536" data-name="Rectangle 1536" width="32.412" height="18.168" transform="translate(0 0)" fill="#ff5a55"/>
    </clipPath>
  </defs>
  <g id="students_icon" transform="translate(0 0.001)">
    <g id="Groupe_72" data-name="Groupe 72" transform="translate(0 -0.001)" clip-path="url(#clip-path)">
      <path id="Tracé_388" data-name="Tracé 388" d="M26.009,17.951c0-.919-.033-1.789.008-2.657a13.8,13.8,0,0,0-.233-4,6,6,0,0,0-.491-1.269A20.441,20.441,0,0,1,23.05,2.357,4.612,4.612,0,0,1,23.161,1a1.124,1.124,0,0,1,1.018-1,1.263,1.263,0,0,1,1.266.961c.19.713.271,1.455.428,2.178a26.468,26.468,0,0,0,.693,2.9A4.3,4.3,0,0,0,29.02,8.587a13.882,13.882,0,0,0,4.566,1.224c2.667.215,4.091,1.819,4.954,4.143a11.848,11.848,0,0,1,.635,3.738c.01.284-.107.385-.37.391-1.4.028-2.8.1-4.192.083-2.754-.035-5.507-.119-8.261-.185-.112,0-.223-.019-.344-.029" transform="translate(-14.8 0.001)" fill="#ff5a55"/>
      <path id="Tracé_389" data-name="Tracé 389" d="M.068,36.738a5.787,5.787,0,0,1,3.393-6.2,5.658,5.658,0,0,1,6.714,1.681,1.328,1.328,0,0,1,.242.771c0,1.1-.038,2.2-.062,3.3,0,.139,0,.278,0,.447Z" transform="translate(0 -19.315)" fill="#ff5a55"/>
      <path id="Tracé_390" data-name="Tracé 390" d="M67.785,36.751a25.613,25.613,0,0,0-.507-2.962,25.548,25.548,0,0,0-1.143-2.776c1.21-1.065,3.793-1.235,5.609-.317a5.839,5.839,0,0,1,3.121,6.055Z" transform="translate(-42.486 -19.336)" fill="#ff5a55"/>
      <path id="Tracé_391" data-name="Tracé 391" d="M42.316,3.572a3.679,3.679,0,1,1-3.688,3.643,3.674,3.674,0,0,1,3.688-3.643" transform="translate(-24.815 -2.294)" fill="#ff5a55"/>
      <path id="Tracé_392" data-name="Tracé 392" d="M68.927,10.255a3.2,3.2,0,1,1-3.212,3.2,3.193,3.193,0,0,1,3.212-3.2" transform="translate(-42.216 -6.588)" fill="#ff5a55"/>
      <path id="Tracé_393" data-name="Tracé 393" d="M10.25,10.174a8.948,8.948,0,0,1,.883.144,1.483,1.483,0,0,1,1.288,1.311,26.167,26.167,0,0,0,.713,2.594,1.049,1.049,0,0,1-.05.677A3.194,3.194,0,0,1,7.1,12.924a3.223,3.223,0,0,1,3.149-2.75" transform="translate(-4.536 -6.536)" fill="#ff5a55"/>
    </g>
  </g>
</svg>
